<?xml version="1.0" encoding="UTF-8"?>
<!DOCTYPE svg PUBLIC "-//W3C//DTD SVG 1.1//EN" "http://www.w3.org/Graphics/SVG/1.1/DTD/svg11.dtd">
<svg xmlns="http://www.w3.org/2000/svg" version="1.1" width="192" height="192" viewBox="0 0 500 500" style="shape-rendering:geometricPrecision; text-rendering:geometricPrecision; image-rendering:optimizeQuality; fill-rule:evenodd; clip-rule:evenodd" xmlns:xlink="http://www.w3.org/1999/xlink">
<g><path style="opacity:1" fill="#161616" d="M 233.5,41.5 C 322.658,39.31 389.158,76.6433 433,153.5C 461.684,212.802 463.35,272.802 438,333.5C 395.265,417.802 326.431,458.302 231.5,455C 156.615,446.338 101.115,409.172 65,343.5C 32.9962,277.18 34.3295,211.513 69,146.5C 106.211,84.162 161.044,49.162 233.5,41.5 Z"/></g>
<g><path style="opacity:1" fill="#ededed" d="M 317.5,148.5 C 319.5,148.5 321.5,148.5 323.5,148.5C 314.83,208.851 305.83,269.185 296.5,329.5C 294.5,329.5 292.5,329.5 290.5,329.5C 299.829,269.21 308.829,208.876 317.5,148.5 Z"/></g>
<g><path style="opacity:1" fill="#cbc8c7" d="M 167.5,180.5 C 182.324,179.504 197.324,179.171 212.5,179.5C 213.167,180.5 213.833,181.5 214.5,182.5C 213.211,183.501 211.878,183.334 210.5,182C 210.833,181.667 211.167,181.333 211.5,181C 196.837,180.5 182.17,180.333 167.5,180.5 Z"/></g>
<g><path style="opacity:1" fill="#fdf7f7" d="M 240.5,179.5 C 256.167,179.5 271.833,179.5 287.5,179.5C 287.169,205.005 287.502,230.339 288.5,255.5C 288.5,272.5 288.5,289.5 288.5,306.5C 272.486,306.833 256.486,306.499 240.5,305.5C 229.82,288.128 218.653,271.128 207,254.5C 206.5,254.833 206,255.167 205.5,255.5C 208.667,260.5 211.833,265.5 215,270.5C 215.5,282.495 215.667,294.495 215.5,306.5C 199.5,306.5 183.5,306.5 167.5,306.5C 167.5,277.833 167.5,249.167 167.5,220.5C 167.5,207.167 167.5,193.833 167.5,180.5C 182.17,180.333 196.837,180.5 211.5,181C 211.167,181.333 210.833,181.667 210.5,182C 211.878,183.334 213.211,183.501 214.5,182.5C 221.867,193.523 229.2,204.523 236.5,215.5C 239.907,221.309 243.574,226.975 247.5,232.5C 248.167,233.833 248.833,233.833 249.5,232.5C 246.918,227.667 244.085,223 241,218.5C 240.5,205.504 240.333,192.504 240.5,179.5 Z"/></g>
<g><path style="opacity:1" fill="#575655" d="M 329.5,187.5 C 327.541,193.75 326.874,200.416 327.5,207.5C 326.509,200.687 326.175,193.687 326.5,186.5C 327.791,186.263 328.791,186.596 329.5,187.5 Z"/></g>
<g><path style="opacity:1" fill="#6b6969" d="M 240.5,179.5 C 256.325,178.504 272.325,178.17 288.5,178.5C 288.5,204.167 288.5,229.833 288.5,255.5C 287.502,230.339 287.169,205.005 287.5,179.5C 271.833,179.5 256.167,179.5 240.5,179.5 Z"/></g>
<g><path style="opacity:1" fill="#605f5d" d="M 212.5,179.5 C 197.324,179.171 182.324,179.504 167.5,180.5C 167.5,193.833 167.5,207.167 167.5,220.5C 166.504,206.677 166.171,192.677 166.5,178.5C 182.009,178.17 197.342,178.504 212.5,179.5 Z"/></g>
<g><path style="opacity:1" fill="#363131" d="M 240.5,179.5 C 240.333,192.504 240.5,205.504 241,218.5C 244.085,223 246.918,227.667 249.5,232.5C 248.833,233.833 248.167,233.833 247.5,232.5C 243.574,226.975 239.907,221.309 236.5,215.5C 237.496,215.414 238.329,215.748 239,216.5C 239.169,203.993 239.669,191.66 240.5,179.5 Z"/></g>
<g><path style="opacity:1" fill="#f8f4f3" d="M 152.5,194.5 C 153.5,194.5 154.5,194.5 155.5,194.5C 155.808,200.425 155.475,206.259 154.5,212C 126.495,225.003 98.8286,238.503 71.5,252.5C 99.4775,264.161 127.477,275.828 155.5,287.5C 156.495,293.128 156.829,298.794 156.5,304.5C 120.853,290.283 85.5198,275.283 50.5,259.5C 49.2023,255.285 49.2023,251.118 50.5,247C 84.8955,230.302 118.896,212.802 152.5,194.5 Z"/></g>
<g><path style="opacity:1" fill="#7b7c7c" d="M 449.5,246.5 C 450.486,250.97 450.819,255.637 450.5,260.5C 449.5,260.5 448.5,260.5 447.5,260.5C 449.348,256.146 450.015,251.48 449.5,246.5 Z"/></g>
<g><path style="opacity:1" fill="#f9f5f5" d="M 329.5,187.5 C 369.386,207.109 409.386,226.776 449.5,246.5C 450.015,251.48 449.348,256.146 447.5,260.5C 408.37,277.983 369.37,295.65 330.5,313.5C 328.544,307.588 327.877,301.255 328.5,294.5C 360.255,280.791 391.922,266.791 423.5,252.5C 391.678,236.92 359.678,221.92 327.5,207.5C 326.874,200.416 327.541,193.75 329.5,187.5 Z"/></g>
<g><path style="opacity:1" fill="#5b5959" d="M 328.5,294.5 C 327.877,301.255 328.544,307.588 330.5,313.5C 329.791,314.404 328.791,314.737 327.5,314.5C 327.176,307.646 327.509,300.979 328.5,294.5 Z"/></g>
</svg>
